<mxfile host="app.diagrams.net" modified="2024-01-02T07:44:11.650Z" agent="Mozilla/5.0 (Windows NT 10.0; Win64; x64) AppleWebKit/537.36 (KHTML, like Gecko) Chrome/120.0.0.0 Safari/537.36" etag="reIv_5TF1dcbB3LhFEXF" version="22.1.16" type="github">
  <diagram name="페이지-1" id="Gq8Mpnn2JN46EDsMWv6A">
    <mxGraphModel dx="1687" dy="918" grid="1" gridSize="10" guides="1" tooltips="1" connect="1" arrows="1" fold="1" page="1" pageScale="1" pageWidth="1390" pageHeight="980" math="0" shadow="0">
      <root>
        <mxCell id="0" />
        <mxCell id="1" parent="0" />
        <mxCell id="vowOgIwN2U-q6foPGj1b-1" value="&lt;b&gt;고객&lt;/b&gt;" style="rounded=0;whiteSpace=wrap;html=1;" vertex="1" parent="1">
          <mxGeometry x="380" y="390" width="120" height="60" as="geometry" />
        </mxCell>
        <mxCell id="vowOgIwN2U-q6foPGj1b-2" value="&lt;font color=&quot;#ff0000&quot;&gt;&lt;u&gt;고객코드&lt;/u&gt;&lt;/font&gt;" style="ellipse;whiteSpace=wrap;html=1;" vertex="1" parent="1">
          <mxGeometry x="610" y="250" width="105" height="70" as="geometry" />
        </mxCell>
        <mxCell id="vowOgIwN2U-q6foPGj1b-4" value="&lt;u&gt;전화번호&lt;/u&gt;" style="ellipse;whiteSpace=wrap;html=1;" vertex="1" parent="1">
          <mxGeometry x="360" y="200" width="105" height="70" as="geometry" />
        </mxCell>
        <mxCell id="vowOgIwN2U-q6foPGj1b-5" value="고객명" style="ellipse;whiteSpace=wrap;html=1;" vertex="1" parent="1">
          <mxGeometry x="210" y="228" width="105" height="70" as="geometry" />
        </mxCell>
        <mxCell id="vowOgIwN2U-q6foPGj1b-6" value="&lt;u&gt;이메일&lt;/u&gt;" style="ellipse;whiteSpace=wrap;html=1;" vertex="1" parent="1">
          <mxGeometry x="490" y="210" width="105" height="70" as="geometry" />
        </mxCell>
        <mxCell id="vowOgIwN2U-q6foPGj1b-9" value="가입일" style="ellipse;whiteSpace=wrap;html=1;" vertex="1" parent="1">
          <mxGeometry x="240" y="500" width="105" height="70" as="geometry" />
        </mxCell>
        <mxCell id="vowOgIwN2U-q6foPGj1b-10" value="&lt;font color=&quot;#ff0000&quot;&gt;주소&lt;/font&gt;" style="ellipse;whiteSpace=wrap;html=1;" vertex="1" parent="1">
          <mxGeometry x="190" y="370" width="105" height="70" as="geometry" />
        </mxCell>
        <mxCell id="vowOgIwN2U-q6foPGj1b-11" value="기본주소" style="ellipse;whiteSpace=wrap;html=1;" vertex="1" parent="1">
          <mxGeometry x="40" y="300" width="105" height="70" as="geometry" />
        </mxCell>
        <mxCell id="vowOgIwN2U-q6foPGj1b-12" value="상세주소" style="ellipse;whiteSpace=wrap;html=1;" vertex="1" parent="1">
          <mxGeometry x="40" y="420" width="105" height="70" as="geometry" />
        </mxCell>
        <mxCell id="vowOgIwN2U-q6foPGj1b-13" value="&lt;b&gt;제품&lt;/b&gt;" style="rounded=0;whiteSpace=wrap;html=1;" vertex="1" parent="1">
          <mxGeometry x="1000" y="380" width="120" height="60" as="geometry" />
        </mxCell>
        <mxCell id="vowOgIwN2U-q6foPGj1b-14" value="제품명" style="ellipse;whiteSpace=wrap;html=1;" vertex="1" parent="1">
          <mxGeometry x="1130" y="260" width="105" height="70" as="geometry" />
        </mxCell>
        <mxCell id="vowOgIwN2U-q6foPGj1b-15" value="&lt;u&gt;&lt;font color=&quot;#ff0000&quot;&gt;제품코드&lt;/font&gt;&lt;/u&gt;" style="ellipse;whiteSpace=wrap;html=1;" vertex="1" parent="1">
          <mxGeometry x="1000" y="250" width="105" height="70" as="geometry" />
        </mxCell>
        <mxCell id="vowOgIwN2U-q6foPGj1b-16" value="제품구분" style="ellipse;whiteSpace=wrap;html=1;" vertex="1" parent="1">
          <mxGeometry x="1190" y="340" width="105" height="70" as="geometry" />
        </mxCell>
        <mxCell id="vowOgIwN2U-q6foPGj1b-18" value="가격" style="ellipse;whiteSpace=wrap;html=1;" vertex="1" parent="1">
          <mxGeometry x="1150" y="510" width="105" height="70" as="geometry" />
        </mxCell>
        <mxCell id="vowOgIwN2U-q6foPGj1b-20" value="&lt;b&gt;지역&lt;/b&gt;" style="rounded=0;whiteSpace=wrap;html=1;" vertex="1" parent="1">
          <mxGeometry x="410" y="770" width="120" height="60" as="geometry" />
        </mxCell>
        <mxCell id="vowOgIwN2U-q6foPGj1b-21" value="지역명" style="ellipse;whiteSpace=wrap;html=1;" vertex="1" parent="1">
          <mxGeometry x="210" y="730" width="105" height="70" as="geometry" />
        </mxCell>
        <mxCell id="vowOgIwN2U-q6foPGj1b-22" value="&lt;font color=&quot;#ff3333&quot;&gt;&lt;u&gt;지역코드&lt;/u&gt;&lt;/font&gt;" style="ellipse;whiteSpace=wrap;html=1;" vertex="1" parent="1">
          <mxGeometry x="220" y="820" width="105" height="70" as="geometry" />
        </mxCell>
        <mxCell id="vowOgIwN2U-q6foPGj1b-24" value="" style="endArrow=none;html=1;rounded=0;exitX=0.5;exitY=0;exitDx=0;exitDy=0;entryX=0.232;entryY=0.937;entryDx=0;entryDy=0;entryPerimeter=0;" edge="1" parent="1" source="vowOgIwN2U-q6foPGj1b-1" target="vowOgIwN2U-q6foPGj1b-6">
          <mxGeometry width="50" height="50" relative="1" as="geometry">
            <mxPoint x="539.58" y="396.1600000000001" as="sourcePoint" />
            <mxPoint x="520" y="300" as="targetPoint" />
          </mxGeometry>
        </mxCell>
        <mxCell id="vowOgIwN2U-q6foPGj1b-25" value="" style="endArrow=none;html=1;rounded=0;entryX=0.5;entryY=1;entryDx=0;entryDy=0;" edge="1" parent="1" source="vowOgIwN2U-q6foPGj1b-1">
          <mxGeometry width="50" height="50" relative="1" as="geometry">
            <mxPoint x="419.3500000000001" y="385.0200000000002" as="sourcePoint" />
            <mxPoint x="405.65000000000003" y="270" as="targetPoint" />
          </mxGeometry>
        </mxCell>
        <mxCell id="vowOgIwN2U-q6foPGj1b-26" value="" style="endArrow=none;html=1;rounded=0;entryX=0.793;entryY=0.966;entryDx=0;entryDy=0;entryPerimeter=0;exitX=0.15;exitY=-0.044;exitDx=0;exitDy=0;exitPerimeter=0;" edge="1" parent="1" source="vowOgIwN2U-q6foPGj1b-1" target="vowOgIwN2U-q6foPGj1b-5">
          <mxGeometry width="50" height="50" relative="1" as="geometry">
            <mxPoint x="337.35" y="418" as="sourcePoint" />
            <mxPoint x="310" y="298" as="targetPoint" />
          </mxGeometry>
        </mxCell>
        <mxCell id="vowOgIwN2U-q6foPGj1b-27" value="" style="endArrow=none;html=1;rounded=0;exitX=0.679;exitY=-0.005;exitDx=0;exitDy=0;exitPerimeter=0;entryX=-0.003;entryY=0.702;entryDx=0;entryDy=0;entryPerimeter=0;" edge="1" parent="1" source="vowOgIwN2U-q6foPGj1b-1" target="vowOgIwN2U-q6foPGj1b-2">
          <mxGeometry width="50" height="50" relative="1" as="geometry">
            <mxPoint x="471.97999999999996" y="390.0000000000001" as="sourcePoint" />
            <mxPoint x="613.0162175221487" y="310.35313121289585" as="targetPoint" />
          </mxGeometry>
        </mxCell>
        <mxCell id="vowOgIwN2U-q6foPGj1b-34" value="" style="endArrow=none;html=1;rounded=0;exitX=1;exitY=0.5;exitDx=0;exitDy=0;" edge="1" parent="1" source="vowOgIwN2U-q6foPGj1b-10">
          <mxGeometry width="50" height="50" relative="1" as="geometry">
            <mxPoint x="330" y="460" as="sourcePoint" />
            <mxPoint x="380" y="410" as="targetPoint" />
          </mxGeometry>
        </mxCell>
        <mxCell id="vowOgIwN2U-q6foPGj1b-36" value="" style="endArrow=none;html=1;rounded=0;entryX=-0.007;entryY=0.642;entryDx=0;entryDy=0;entryPerimeter=0;exitX=0.597;exitY=0.004;exitDx=0;exitDy=0;exitPerimeter=0;" edge="1" parent="1" source="vowOgIwN2U-q6foPGj1b-9" target="vowOgIwN2U-q6foPGj1b-1">
          <mxGeometry width="50" height="50" relative="1" as="geometry">
            <mxPoint x="315" y="490" as="sourcePoint" />
            <mxPoint x="365" y="440" as="targetPoint" />
          </mxGeometry>
        </mxCell>
        <mxCell id="vowOgIwN2U-q6foPGj1b-37" value="" style="endArrow=none;html=1;rounded=0;entryX=0.008;entryY=0.298;entryDx=0;entryDy=0;entryPerimeter=0;" edge="1" parent="1" target="vowOgIwN2U-q6foPGj1b-10">
          <mxGeometry width="50" height="50" relative="1" as="geometry">
            <mxPoint x="145" y="340" as="sourcePoint" />
            <mxPoint x="195" y="290" as="targetPoint" />
          </mxGeometry>
        </mxCell>
        <mxCell id="vowOgIwN2U-q6foPGj1b-38" value="" style="endArrow=none;html=1;rounded=0;entryX=0;entryY=0.5;entryDx=0;entryDy=0;exitX=1;exitY=0.391;exitDx=0;exitDy=0;exitPerimeter=0;" edge="1" parent="1" source="vowOgIwN2U-q6foPGj1b-12" target="vowOgIwN2U-q6foPGj1b-10">
          <mxGeometry width="50" height="50" relative="1" as="geometry">
            <mxPoint x="145" y="429.57" as="sourcePoint" />
            <mxPoint x="191" y="480.57" as="targetPoint" />
          </mxGeometry>
        </mxCell>
        <mxCell id="vowOgIwN2U-q6foPGj1b-42" value="" style="endArrow=none;html=1;rounded=0;exitX=0.75;exitY=0;exitDx=0;exitDy=0;" edge="1" parent="1" source="vowOgIwN2U-q6foPGj1b-13">
          <mxGeometry width="50" height="50" relative="1" as="geometry">
            <mxPoint x="1100" y="370" as="sourcePoint" />
            <mxPoint x="1150" y="320" as="targetPoint" />
          </mxGeometry>
        </mxCell>
        <mxCell id="vowOgIwN2U-q6foPGj1b-43" value="" style="endArrow=none;html=1;rounded=0;entryX=0.628;entryY=1.012;entryDx=0;entryDy=0;entryPerimeter=0;exitX=0.628;exitY=-0.065;exitDx=0;exitDy=0;exitPerimeter=0;" edge="1" parent="1" source="vowOgIwN2U-q6foPGj1b-13" target="vowOgIwN2U-q6foPGj1b-15">
          <mxGeometry width="50" height="50" relative="1" as="geometry">
            <mxPoint x="1027.5" y="380" as="sourcePoint" />
            <mxPoint x="1077.5" y="330" as="targetPoint" />
          </mxGeometry>
        </mxCell>
        <mxCell id="vowOgIwN2U-q6foPGj1b-48" value="" style="endArrow=none;html=1;rounded=0;exitX=1;exitY=0.5;exitDx=0;exitDy=0;entryX=0;entryY=0.5;entryDx=0;entryDy=0;" edge="1" parent="1" source="vowOgIwN2U-q6foPGj1b-21" target="vowOgIwN2U-q6foPGj1b-20">
          <mxGeometry width="50" height="50" relative="1" as="geometry">
            <mxPoint x="320" y="760" as="sourcePoint" />
            <mxPoint x="380" y="720" as="targetPoint" />
          </mxGeometry>
        </mxCell>
        <mxCell id="vowOgIwN2U-q6foPGj1b-50" value="" style="endArrow=none;html=1;rounded=0;exitX=0.959;exitY=0.348;exitDx=0;exitDy=0;exitPerimeter=0;entryX=0;entryY=0.75;entryDx=0;entryDy=0;" edge="1" parent="1" source="vowOgIwN2U-q6foPGj1b-22" target="vowOgIwN2U-q6foPGj1b-20">
          <mxGeometry width="50" height="50" relative="1" as="geometry">
            <mxPoint x="320" y="860" as="sourcePoint" />
            <mxPoint x="370" y="810" as="targetPoint" />
          </mxGeometry>
        </mxCell>
        <mxCell id="vowOgIwN2U-q6foPGj1b-52" value="" style="endArrow=none;html=1;rounded=0;exitX=1;exitY=0.25;exitDx=0;exitDy=0;entryX=0;entryY=0.5;entryDx=0;entryDy=0;" edge="1" parent="1" source="vowOgIwN2U-q6foPGj1b-13" target="vowOgIwN2U-q6foPGj1b-16">
          <mxGeometry width="50" height="50" relative="1" as="geometry">
            <mxPoint x="1130" y="420" as="sourcePoint" />
            <mxPoint x="1180" y="370" as="targetPoint" />
          </mxGeometry>
        </mxCell>
        <mxCell id="vowOgIwN2U-q6foPGj1b-53" value="" style="endArrow=none;html=1;rounded=0;exitX=1;exitY=0.5;exitDx=0;exitDy=0;entryX=0.054;entryY=0.239;entryDx=0;entryDy=0;entryPerimeter=0;" edge="1" parent="1" source="vowOgIwN2U-q6foPGj1b-13" target="vowOgIwN2U-q6foPGj1b-57">
          <mxGeometry width="50" height="50" relative="1" as="geometry">
            <mxPoint x="1130" y="460" as="sourcePoint" />
            <mxPoint x="1190" y="450.02" as="targetPoint" />
          </mxGeometry>
        </mxCell>
        <mxCell id="vowOgIwN2U-q6foPGj1b-55" value="" style="endArrow=none;html=1;rounded=0;entryX=0.75;entryY=1;entryDx=0;entryDy=0;" edge="1" parent="1" source="vowOgIwN2U-q6foPGj1b-18" target="vowOgIwN2U-q6foPGj1b-13">
          <mxGeometry width="50" height="50" relative="1" as="geometry">
            <mxPoint x="1100" y="510" as="sourcePoint" />
            <mxPoint x="1150" y="460" as="targetPoint" />
          </mxGeometry>
        </mxCell>
        <mxCell id="vowOgIwN2U-q6foPGj1b-57" value="&lt;font color=&quot;#ff0000&quot;&gt;제품색상&lt;/font&gt;" style="ellipse;shape=doubleEllipse;whiteSpace=wrap;html=1;" vertex="1" parent="1">
          <mxGeometry x="1190" y="430" width="100" height="60" as="geometry" />
        </mxCell>
        <mxCell id="vowOgIwN2U-q6foPGj1b-58" value="관리" style="rhombus;whiteSpace=wrap;html=1;" vertex="1" parent="1">
          <mxGeometry x="390" y="580" width="140" height="80" as="geometry" />
        </mxCell>
        <mxCell id="vowOgIwN2U-q6foPGj1b-59" value="" style="endArrow=none;html=1;rounded=0;exitX=0.5;exitY=1;exitDx=0;exitDy=0;entryX=0.5;entryY=0;entryDx=0;entryDy=0;" edge="1" parent="1" source="vowOgIwN2U-q6foPGj1b-1" target="vowOgIwN2U-q6foPGj1b-58">
          <mxGeometry relative="1" as="geometry">
            <mxPoint x="435" y="500" as="sourcePoint" />
            <mxPoint x="595" y="500" as="targetPoint" />
          </mxGeometry>
        </mxCell>
        <mxCell id="vowOgIwN2U-q6foPGj1b-60" value="N" style="resizable=0;html=1;whiteSpace=wrap;align=right;verticalAlign=bottom;" connectable="0" vertex="1" parent="vowOgIwN2U-q6foPGj1b-59">
          <mxGeometry x="1" relative="1" as="geometry" />
        </mxCell>
        <mxCell id="vowOgIwN2U-q6foPGj1b-61" value="" style="endArrow=none;html=1;rounded=0;entryX=0.5;entryY=1;entryDx=0;entryDy=0;exitX=0.5;exitY=0;exitDx=0;exitDy=0;" edge="1" parent="1" source="vowOgIwN2U-q6foPGj1b-20" target="vowOgIwN2U-q6foPGj1b-58">
          <mxGeometry relative="1" as="geometry">
            <mxPoint x="390" y="720" as="sourcePoint" />
            <mxPoint x="550" y="720" as="targetPoint" />
          </mxGeometry>
        </mxCell>
        <mxCell id="vowOgIwN2U-q6foPGj1b-62" value="1" style="resizable=0;html=1;whiteSpace=wrap;align=right;verticalAlign=bottom;" connectable="0" vertex="1" parent="vowOgIwN2U-q6foPGj1b-61">
          <mxGeometry x="1" relative="1" as="geometry">
            <mxPoint x="20" y="20" as="offset" />
          </mxGeometry>
        </mxCell>
        <mxCell id="vowOgIwN2U-q6foPGj1b-63" value="구매" style="rhombus;whiteSpace=wrap;html=1;" vertex="1" parent="1">
          <mxGeometry x="719" y="370" width="130" height="80" as="geometry" />
        </mxCell>
        <mxCell id="vowOgIwN2U-q6foPGj1b-64" value="" style="endArrow=none;html=1;rounded=0;exitX=0;exitY=0.5;exitDx=0;exitDy=0;entryX=1;entryY=0.5;entryDx=0;entryDy=0;" edge="1" parent="1" source="vowOgIwN2U-q6foPGj1b-13" target="vowOgIwN2U-q6foPGj1b-63">
          <mxGeometry relative="1" as="geometry">
            <mxPoint x="990" y="410" as="sourcePoint" />
            <mxPoint x="850" y="409" as="targetPoint" />
          </mxGeometry>
        </mxCell>
        <mxCell id="vowOgIwN2U-q6foPGj1b-65" value="N" style="resizable=0;html=1;whiteSpace=wrap;align=right;verticalAlign=bottom;" connectable="0" vertex="1" parent="vowOgIwN2U-q6foPGj1b-64">
          <mxGeometry x="1" relative="1" as="geometry" />
        </mxCell>
        <mxCell id="vowOgIwN2U-q6foPGj1b-66" value="" style="endArrow=none;html=1;rounded=0;exitX=1;exitY=0.5;exitDx=0;exitDy=0;entryX=0;entryY=0.5;entryDx=0;entryDy=0;" edge="1" parent="1" source="vowOgIwN2U-q6foPGj1b-1" target="vowOgIwN2U-q6foPGj1b-63">
          <mxGeometry relative="1" as="geometry">
            <mxPoint x="510" y="430" as="sourcePoint" />
            <mxPoint x="670" y="430" as="targetPoint" />
          </mxGeometry>
        </mxCell>
        <mxCell id="vowOgIwN2U-q6foPGj1b-67" value="M" style="text;html=1;align=center;verticalAlign=middle;resizable=0;points=[];autosize=1;strokeColor=none;fillColor=none;" vertex="1" parent="1">
          <mxGeometry x="685" y="370" width="30" height="30" as="geometry" />
        </mxCell>
        <mxCell id="vowOgIwN2U-q6foPGj1b-68" value="수량" style="ellipse;whiteSpace=wrap;html=1;" vertex="1" parent="1">
          <mxGeometry x="670" y="510" width="120" height="80" as="geometry" />
        </mxCell>
        <mxCell id="vowOgIwN2U-q6foPGj1b-69" value="구매일자" style="ellipse;whiteSpace=wrap;html=1;" vertex="1" parent="1">
          <mxGeometry x="820" y="505" width="120" height="80" as="geometry" />
        </mxCell>
        <mxCell id="vowOgIwN2U-q6foPGj1b-71" value="" style="endArrow=none;html=1;rounded=0;entryX=0.397;entryY=0.9;entryDx=0;entryDy=0;entryPerimeter=0;exitX=0.5;exitY=0;exitDx=0;exitDy=0;" edge="1" parent="1" source="vowOgIwN2U-q6foPGj1b-68" target="vowOgIwN2U-q6foPGj1b-63">
          <mxGeometry width="50" height="50" relative="1" as="geometry">
            <mxPoint x="685" y="485" as="sourcePoint" />
            <mxPoint x="735" y="435" as="targetPoint" />
          </mxGeometry>
        </mxCell>
        <mxCell id="vowOgIwN2U-q6foPGj1b-72" value="" style="endArrow=none;html=1;rounded=0;exitX=0.295;exitY=0.051;exitDx=0;exitDy=0;exitPerimeter=0;entryX=0.56;entryY=0.959;entryDx=0;entryDy=0;entryPerimeter=0;" edge="1" parent="1" source="vowOgIwN2U-q6foPGj1b-69" target="vowOgIwN2U-q6foPGj1b-63">
          <mxGeometry width="50" height="50" relative="1" as="geometry">
            <mxPoint x="800" y="508" as="sourcePoint" />
            <mxPoint x="800" y="460" as="targetPoint" />
          </mxGeometry>
        </mxCell>
        <mxCell id="vowOgIwN2U-q6foPGj1b-73" value="&lt;b&gt;온라인 전자상거래ERD&lt;/b&gt;" style="text;html=1;align=center;verticalAlign=middle;resizable=0;points=[];autosize=1;strokeColor=none;fillColor=none;" vertex="1" parent="1">
          <mxGeometry x="40" y="130" width="150" height="30" as="geometry" />
        </mxCell>
      </root>
    </mxGraphModel>
  </diagram>
</mxfile>
